<?xml version="1.0" encoding="UTF-8" standalone="no"?>
<!DOCTYPE svg PUBLIC "-//W3C//DTD SVG 1.1//EN" "http://www.w3.org/Graphics/SVG/1.1/DTD/svg11.dtd">
<svg xmlns="http://www.w3.org/2000/svg" xmlns:dc="http://purl.org/dc/elements/1.1/" version="1.1" xmlns:xl="http://www.w3.org/1999/xlink" viewBox="152.5 190 895 250" width="895" height="250">
  <defs>
    <linearGradient x1="0" x2="1" id="Gradient" gradientUnits="userSpaceOnUse">
      <stop offset="0" stop-color="white"/>
      <stop offset="1" stop-color="#c4c4c4"/>
    </linearGradient>
    <linearGradient id="Obj_Gradient" xl:href="#Gradient" gradientTransform="translate(149.58958 192.91042) rotate(45) scale(345.3215)"/>
    <linearGradient id="Obj_Gradient_2" xl:href="#Gradient" gradientTransform="translate(431.35853 194.54865) rotate(45) scale(150.5491)"/>
    <linearGradient id="Obj_Gradient_3" xl:href="#Gradient" gradientTransform="translate(538.2916 191.19701) rotate(45) scale(160.02895)"/>
    <linearGradient id="Obj_Gradient_4" xl:href="#Gradient" gradientTransform="translate(657.31454 186.76807) rotate(45) scale(172.5559)"/>
    <linearGradient id="Obj_Gradient_5" xl:href="#Gradient" gradientTransform="translate(793.8936 193.83044) rotate(45) scale(152.5805)"/>
    <linearGradient id="Obj_Gradient_6" xl:href="#Gradient" gradientTransform="translate(906.8118 198.21948) rotate(45) scale(140.1664)"/>
    <linearGradient id="Obj_Gradient_7" xl:href="#Gradient" gradientTransform="translate(433.4327 327.08184) rotate(45) scale(155.96616)"/>
    <linearGradient id="Obj_Gradient_8" xl:href="#Gradient" gradientTransform="translate(552.4556 321.2165) rotate(45) scale(172.5559)"/>
    <linearGradient id="Obj_Gradient_9" xl:href="#Gradient" gradientTransform="translate(678.0621 322.9721) rotate(45) scale(167.59027)"/>
    <linearGradient id="Obj_Gradient_10" xl:href="#Gradient" gradientTransform="translate(809.6936 328.27886) rotate(45) scale(152.5805)"/>
    <linearGradient id="Obj_Gradient_11" xl:href="#Gradient" gradientTransform="translate(930.6317 324.6479) rotate(45) scale(162.85034)"/>
  </defs>
  <metadata> Produced by OmniGraffle 7.10.2 
    <dc:date>2019-05-17 14:09:02 +0000</dc:date>
  </metadata>
  <g id="social-media" stroke="none" fill="none" stroke-dasharray="none" fill-opacity="1" stroke-opacity="1">
    <title>social-media</title>
    <g id="social-media: Layer 1">
      <title>Layer 1</title>
      <g id="Group_124">
        <g id="Graphic_100">
          <path d="M 176.69864 301.3621 C 177.30348 247.1362 205.5233 230.1644 220.89127 230.1644 C 242.353 230.1644 251.21693 246.5485 252.66552 253.80255 C 254.1131 261.05054 262.2361 266.84794 264.846 254.9588 C 267.4579 243.06966 292.70592 206.81556 323.73724 206.81556 C 352.15665 206.81556 361.9994 236.12308 361.1476 261.05054 C 358.822 328.91157 271.40145 383.07196 259.89437 417.2706 C 249.64838 396.55787 175.97585 366.6173 176.69864 301.3621 Z M 333.88947 190 C 308.36825 190 278.18573 208.84883 259.91654 240.17248 C 254.9871 228.85996 237.42356 216.5323 216.5455 216.5323 C 199.72187 216.5323 152.5 237.55856 152.5 305.4216 C 152.5 393.0024 241.11006 410.99137 259.0234 438.2132 C 260.25425 440.0852 264.21897 441.4995 265.73208 437.0267 C 280.02546 394.84416 390.85834 347.18277 390.85834 261.34188 C 390.85733 213.20065 359.4097 190 333.88947 190 Z" fill="url(#Obj_Gradient)"/>
        </g>
        <g id="Group_123">
          <title>SCORE
BOARD</title>
          <g id="Graphic_113">
            <path d="M 481.39364 305.5516 C 472.5623 305.5516 464.0237 304.3546 455.7776 301.96055 C 447.53145 299.5665 440.90805 296.4543 435.9072 292.62385 L 444.68527 273.15245 C 449.47334 276.6637 455.16574 279.4833 461.76264 281.61134 C 468.35954 283.73937 474.95634 284.80337 481.55324 284.80337 C 488.89495 284.80337 494.32136 283.71277 497.8326 281.53154 C 501.34386 279.3503 503.09946 276.4509 503.09946 272.83325 C 503.09946 270.1732 502.06206 267.9654 499.98723 266.20978 C 497.9124 264.45415 495.2524 263.04435 492.00715 261.98034 C 488.7619 260.91632 484.3729 259.74592 478.84 258.4691 C 470.3279 256.44747 463.3587 254.42587 457.9322 252.40424 C 452.5057 250.3826 447.8507 247.1374 443.96706 242.66854 C 440.0834 238.19967 438.1416 232.24127 438.1416 224.79316 C 438.1416 218.30266 439.8972 212.42406 443.40845 207.15718 C 446.9197 201.8903 452.2131 197.7141 459.2888 194.62845 C 466.3645 191.5428 475.0095 190 485.2241 190 C 492.353 190 499.3222 190.8512 506.1319 192.55363 C 512.9416 194.25605 518.9 196.70325 524.0073 199.8953 L 516.0272 219.5263 C 505.70624 213.67421 495.38544 210.7482 485.0645 210.7482 C 477.82917 210.7482 472.48257 211.91861 469.0245 214.25945 C 465.56646 216.60028 463.83746 219.68588 463.83746 223.51634 C 463.83746 227.3468 465.83246 230.193 469.8225 232.05503 C 473.8126 233.91706 479.904 235.75246 488.0969 237.5613 C 496.60904 239.58292 503.57824 241.60452 509.0047 243.62615 C 514.4312 245.64778 519.0862 248.83978 522.96987 253.20225 C 526.8535 257.5647 528.7953 263.4699 528.7953 270.91803 C 528.7953 277.30213 527.0131 283.12753 523.4487 288.3944 C 519.8842 293.6613 514.5376 297.8375 507.4087 300.92314 C 500.2798 304.0088 491.6082 305.5516 481.39364 305.5516 Z" fill="url(#Obj_Gradient_2)"/>
          </g>
          <g id="Graphic_114">
            <path d="M 599.97766 305.5516 C 588.5927 305.5516 578.2985 303.0778 569.09474 298.1301 C 559.891 293.18243 552.6558 286.31963 547.3889 277.5415 C 542.12204 268.76336 539.48864 258.84156 539.48864 247.7758 C 539.48864 236.71002 542.12204 226.78822 547.3889 218.01009 C 552.6558 209.23195 559.891 202.36915 569.09474 197.42148 C 578.2985 192.4738 588.6459 190 600.13726 190 C 609.8198 190 618.5712 191.7024 626.3917 195.10725 C 634.21225 198.5121 640.78245 203.4065 646.1025 209.7906 L 629.50396 225.11236 C 621.94944 216.38743 612.58624 212.02503 601.4141 212.02503 C 594.498 212.02503 588.32676 213.54123 582.9003 216.57367 C 577.4738 219.60612 573.2444 223.83552 570.21195 229.262 C 567.1795 234.68848 565.6633 240.8597 565.6633 247.7758 C 565.6633 254.6919 567.1795 260.8631 570.21195 266.28958 C 573.2444 271.71606 577.4738 275.94546 582.9003 278.9779 C 588.32676 282.01036 594.498 283.52656 601.4141 283.52656 C 612.58624 283.52656 621.94944 279.11096 629.50396 270.27962 L 646.1025 285.60138 C 640.78245 292.09188 634.18565 297.03948 626.3119 300.44433 C 618.4382 303.8492 609.6602 305.5516 599.97766 305.5516 Z" fill="url(#Obj_Gradient_3)"/>
          </g>
          <g id="Graphic_115">
            <path d="M 715.21 305.5516 C 703.6123 305.5516 693.15846 303.0512 683.8483 298.0503 C 674.5382 293.04943 667.2498 286.16003 661.9829 277.3819 C 656.716 268.60376 654.0826 258.73516 654.0826 247.7758 C 654.0826 236.81642 656.716 226.94782 661.9829 218.1697 C 667.2498 209.39155 674.5382 202.50215 683.8483 197.50128 C 693.15846 192.5004 703.6123 190 715.21 190 C 726.8078 190 737.235 192.5004 746.492 197.50128 C 755.7489 202.50215 763.0373 209.39155 768.3574 218.1697 C 773.6775 226.94782 776.3375 236.81642 776.3375 247.7758 C 776.3375 258.73516 773.6775 268.60376 768.3574 277.3819 C 763.0373 286.16003 755.7489 293.04943 746.492 298.0503 C 737.235 303.0512 726.8078 305.5516 715.21 305.5516 Z M 715.21 283.52656 C 721.8069 283.52656 727.7653 282.01036 733.0854 278.9779 C 738.4055 275.94546 742.5817 271.71606 745.61415 266.28958 C 748.6466 260.8631 750.1628 254.6919 750.1628 247.7758 C 750.1628 240.8597 748.6466 234.68848 745.61415 229.262 C 742.5817 223.83552 738.4055 219.60612 733.0854 216.57367 C 727.7653 213.54123 721.8069 212.02503 715.21 212.02503 C 708.6131 212.02503 702.6547 213.54123 697.33465 216.57367 C 692.0146 219.60612 687.8384 223.83552 684.8059 229.262 C 681.7735 234.68848 680.2573 240.8597 680.2573 247.7758 C 680.2573 254.6919 681.7735 260.8631 684.8059 266.28958 C 687.8384 271.71606 692.0146 275.94546 697.33465 278.9779 C 702.6547 282.01036 708.6131 283.52656 715.21 283.52656 Z" fill="url(#Obj_Gradient_4)"/>
          </g>
          <g id="Graphic_116">
            <path d="M 866.9912 303.63636 L 845.445 272.51404 L 844.1682 272.51404 L 821.6643 272.51404 L 821.6643 303.63636 L 795.8089 303.63636 L 795.8089 191.91522 L 844.1682 191.91522 C 854.0635 191.91522 862.6553 193.56442 869.9438 196.86287 C 877.2323 200.16132 882.8449 204.84292 886.7818 210.90781 C 890.7187 216.9727 892.687 224.1547 892.687 232.45403 C 892.687 240.75336 890.692 247.90876 886.702 253.92045 C 882.7119 259.93215 877.0461 264.53395 869.7044 267.726 L 894.7619 303.63636 Z M 866.5124 232.45403 C 866.5124 226.17634 864.4908 221.36174 860.4475 218.01009 C 856.4043 214.65844 850.4991 212.98264 842.7317 212.98264 L 821.6643 212.98264 L 821.6643 251.92543 L 842.7317 251.92543 C 850.4991 251.92543 856.4043 250.22303 860.4475 246.81818 C 864.4908 243.41333 866.5124 238.62533 866.5124 232.45403 Z" fill="url(#Obj_Gradient_5)"/>
          </g>
          <g id="Graphic_117">
            <path d="M 999.6201 282.88815 L 999.6201 303.63636 L 913.1161 303.63636 L 913.1161 191.91522 L 997.5453 191.91522 L 997.5453 212.66343 L 938.8119 212.66343 L 938.8119 236.92288 L 990.6825 236.92288 L 990.6825 257.0327 L 938.8119 257.0327 L 938.8119 282.88815 Z" fill="url(#Obj_Gradient_6)"/>
          </g>
          <g id="Graphic_118">
            <path d="M 516.18616 379.9898 C 522.57026 382.0114 527.57106 385.3896 531.1887 390.1245 C 534.80637 394.85936 536.6152 400.68476 536.6152 407.60087 C 536.6152 417.3898 532.81137 424.9176 525.20365 430.1845 C 517.59594 435.4514 506.50373 438.0848 491.9267 438.0848 L 434.1509 438.0848 L 434.1509 326.36364 L 488.7347 326.36364 C 502.3541 326.36364 512.8079 328.97044 520.0964 334.1841 C 527.3849 339.3978 531.0291 346.4734 531.0291 355.41113 C 531.0291 360.8376 529.7257 365.6788 527.1189 369.9349 C 524.51203 374.19095 520.8678 377.54255 516.18616 379.9898 Z M 459.8468 345.83504 L 459.8468 372.1693 L 485.54265 372.1693 C 491.92674 372.1693 496.76794 371.0521 500.0664 368.81767 C 503.36484 366.58324 505.01404 363.28484 505.01404 358.92237 C 505.01404 354.5599 503.36484 351.2881 500.0664 349.10687 C 496.76794 346.92564 491.92674 345.83504 485.54265 345.83504 Z M 490.0115 418.6134 C 496.8212 418.6134 501.955 417.4962 505.41305 415.26175 C 508.8711 413.0273 510.6001 409.5693 510.6001 404.88764 C 510.6001 395.6307 503.7373 391.0023 490.0115 391.0023 L 459.8468 391.0023 L 459.8468 418.6134 Z" fill="url(#Obj_Gradient_7)"/>
          </g>
          <g id="Graphic_119">
            <path d="M 610.3511 440 C 598.75335 440 588.29954 437.4996 578.9894 432.4987 C 569.67926 427.49785 562.39086 420.60845 557.124 411.8303 C 551.8571 403.0522 549.2237 393.18358 549.2237 382.2242 C 549.2237 371.26484 551.8571 361.39624 557.124 352.6181 C 562.39086 343.83997 569.67926 336.95057 578.9894 331.9497 C 588.29954 326.9488 598.75335 324.4484 610.3511 324.4484 C 621.9489 324.4484 632.3761 326.9488 641.63304 331.9497 C 650.89 336.95057 658.1784 343.83997 663.4985 352.6181 C 668.81855 361.39624 671.47855 371.26484 671.47855 382.2242 C 671.47855 393.18358 668.81855 403.0522 663.4985 411.8303 C 658.1784 420.60845 650.89 427.49785 641.63304 432.4987 C 632.3761 437.4996 621.9489 440 610.3511 440 Z M 610.3511 417.97497 C 616.948 417.97497 622.9064 416.45877 628.2265 413.42633 C 633.5466 410.3939 637.7228 406.1645 640.7552 400.738 C 643.7877 395.3115 645.3039 389.1403 645.3039 382.2242 C 645.3039 375.3081 643.7877 369.1369 640.7552 363.7104 C 637.7228 358.28394 633.5466 354.05454 628.2265 351.0221 C 622.9064 347.98964 616.948 346.47344 610.3511 346.47344 C 603.7542 346.47344 597.7958 347.98964 592.47574 351.0221 C 587.15566 354.05454 582.97946 358.28394 579.947 363.7104 C 576.9146 369.1369 575.39837 375.3081 575.39837 382.2242 C 575.39837 389.1403 576.9146 395.3115 579.947 400.738 C 582.97946 406.1645 587.15566 410.3939 592.47574 413.42633 C 597.7958 416.45877 603.7542 417.97497 610.3511 417.97497 Z" fill="url(#Obj_Gradient_8)"/>
          </g>
          <g id="Graphic_120">
            <path d="M 762.9303 414.14454 L 711.05975 414.14454 L 701.16445 438.0848 L 674.6706 438.0848 L 724.4663 326.36364 L 750.00255 326.36364 L 799.9579 438.0848 L 772.8256 438.0848 Z M 754.7906 394.51353 L 737.0748 351.7403 L 719.359 394.51353 Z" fill="url(#Obj_Gradient_9)"/>
          </g>
          <g id="Graphic_121">
            <path d="M 882.7911 438.0848 L 861.2449 406.96246 L 859.9681 406.96246 L 837.4642 406.96246 L 837.4642 438.0848 L 811.6088 438.0848 L 811.6088 326.36364 L 859.9681 326.36364 C 869.8634 326.36364 878.4552 328.01284 885.7437 331.3113 C 893.0323 334.60974 898.6449 339.29134 902.5817 345.35623 C 906.5186 351.42112 908.487 358.60313 908.487 366.90245 C 908.487 375.2018 906.492 382.3572 902.5019 388.36887 C 898.5119 394.38056 892.846 398.98236 885.5043 402.1744 L 910.5618 438.0848 Z M 882.3123 366.90245 C 882.3123 360.62476 880.2907 355.81015 876.2474 352.4585 C 872.2042 349.10685 866.299 347.43105 858.5317 347.43105 L 837.4642 347.43105 L 837.4642 386.37385 L 858.5317 386.37385 C 866.299 386.37385 872.2042 384.67145 876.2474 381.2666 C 880.2907 377.86175 882.3123 373.07375 882.3123 366.90245 Z" fill="url(#Obj_Gradient_10)"/>
          </g>
          <g id="Graphic_122">
            <path d="M 928.916 326.36364 L 979.6693 326.36364 C 991.7991 326.36364 1002.5189 328.67784 1011.829 333.3063 C 1021.1392 337.93478 1028.3744 344.4518 1033.5349 352.8575 C 1038.6953 361.26324 1041.2755 371.05204 1041.2755 382.2242 C 1041.2755 393.3964 1038.6953 403.1852 1033.5349 411.5909 C 1028.3744 419.99664 1021.1392 426.51364 1011.829 431.1421 C 1002.5189 435.7706 991.7991 438.0848 979.6693 438.0848 L 928.916 438.0848 Z M 978.3925 416.85776 C 989.5647 416.85776 998.4757 413.74556 1005.1258 407.52107 C 1011.7759 401.29657 1015.1009 392.86437 1015.1009 382.2242 C 1015.1009 371.58405 1011.7759 363.15184 1005.1258 356.92735 C 998.4757 350.70285 989.5647 347.59065 978.3925 347.59065 L 954.7715 347.59065 L 954.7715 416.85776 Z" fill="url(#Obj_Gradient_11)"/>
          </g>
        </g>
      </g>
    </g>
  </g>
</svg>
