<?xml version="1.0" encoding="UTF-8" standalone="no"?>
<!DOCTYPE svg PUBLIC "-//W3C//DTD SVG 1.1//EN" "http://www.w3.org/Graphics/SVG/1.1/DTD/svg11.dtd">
<svg xmlns:xl="http://www.w3.org/1999/xlink" xmlns="http://www.w3.org/2000/svg" xmlns:dc="http://purl.org/dc/elements/1.1/" version="1.1" viewBox="0 0 16 16" width="16" height="16">
  <defs/>
  <metadata> Produced by OmniGraffle 7.10.2 
    <dc:date>2019-05-17 14:09:02 +0000</dc:date>
  </metadata>
  <g id="svg" fill="none" stroke="none" stroke-opacity="1" stroke-dasharray="none" fill-opacity="1">
    <title>svg</title>
    <g id="svg: Layer 1">
      <title>Layer 1</title>
      <g id="Graphic_2">
        <path d="M 1.7487128 7.1271755 C 1.7874225 3.656717 3.5934906 2.5705212 4.577041 2.5705212 C 5.950592 2.5705212 6.5178835 3.619104 6.610593 4.083363 C 6.703239 4.547235 7.223111 4.918268 7.390143 4.157363 C 7.557305 3.3964584 9.173179 1.0761957 11.159183 1.0761957 C 12.978025 1.0761957 13.607962 2.951877 13.553446 4.547235 C 13.404607 8.89034 7.809693 12.356605 7.0732395 14.54532 C 6.417496 13.219704 1.7024546 11.303506 1.7487128 7.1271755 Z M 11.808926 0 C 10.175568 0 8.243887 1.206325 7.074659 3.2110386 C 6.759174 2.4870372 5.6351076 1.6980679 4.2989114 1.6980679 C 3.2221996 1.6980679 .2 3.043748 .2 7.386982 C .2 12.992155 5.8710435 14.143447 7.0174974 15.885644 C 7.096272 16.005451 7.350014 16.095967 7.446853 15.809709 C 8.361629 13.110026 15.454934 10.059697 15.454934 4.56588 C 15.454869 1.4848417 13.44222 8881784e-22 11.808926 8881784e-22 Z" fill="black"/>
      </g>
    </g>
  </g>
</svg>
